<?xml version="1.0"?>
<svg version="1.1" xmlns="http://www.w3.org/2000/svg" width="66" height="50" style="border: dashed 2px #aaa"><path fill="#" d="M15.833984375,19.927734375q0-0.21875,0.1572265625-0.3623046875t0.369140625-0.2255859375t0.46484375-0.109375t0.4443359375-0.02734375q0.396484375,0,0.8408203125,0.109375t0.6630859375,0.478515625q0.396484375,0.669921875,0.5810546875,1.5927734375t0.3486328125,1.7705078125q0.24609375,1.17578125,0.62890625,2.4609375t0.7998046875,2.6181640625t0.8544921875,2.6181640625t0.765625,2.40625q0.396484375-1.654296875,0.7314453125-3.390625t0.642578125-3.47265625t0.642578125-3.47265625t0.7314453125-3.404296875q0.08203125-0.396484375,0.123046875-0.998046875t0.1708984375-1.162109375t0.3759765625-0.9638671875t0.751953125-0.4033203125q0.533203125,0,0.7177734375,0.2939453125t0.1845703125,0.8544921875q-0.13671875,1.544921875-0.4443359375,3.0625t-0.5673828125,3.03515625q-0.369140625,1.873046875-0.7998046875,3.7529296875t-0.806640625,3.7666015625t-0.642578125,3.7802734375t-0.3212890625,3.7939453125q0.02734375,0.08203125,0.08203125,0.19140625t0.0546875,0.1640625q0,0.1640625-0.150390625,0.3076171875t-0.3759765625,0.24609375t-0.4921875,0.1572265625t-0.4990234375,0.0546875q-0.21875,0-0.4990234375-0.02734375t-0.560546875-0.1025390625t-0.4921875-0.1982421875t-0.2666015625-0.314453125q-0.21875-0.642578125-0.4033203125-1.2509765625t-0.3486328125-1.2509765625q-0.779296875-2.802734375-1.6337890625-5.5029296875t-1.5791015625-5.4892578125q-0.341796875-1.2578125-0.5126953125-2.4677734375t-0.5537109375-2.3857421875q0.0546875,0.109375,0.0546875,0.177734375q-0.0546875-0.19140625-0.109375-0.3623046875t-0.123046875-0.3759765625q0,0.0546875,0.013671875,0.068359375t0.013671875,0.041015625q0-0.02734375-0.013671875-0.041015625t-0.013671875-0.041015625z M30.62244140625,33.572265625q0-1.2578125,0.2939453125-2.4677734375t0.4990234375-2.4130859375q0.0546875-0.314453125,0.4306640625-0.3896484375t0.6357421875-0.0751953125q0.451171875,0,0.724609375,0.13671875q0.109375,0.0546875,0.205078125,0.123046875t0.095703125,0.177734375q0,1.17578125-0.2802734375,2.296875t-0.2802734375,2.37890625q0,0.423828125,0.0615234375,0.7998046875t0.1162109375,0.7451171875l0.08203125,0.396484375q0,0.109375,0.013671875,0.19140625t0.041015625,0.19140625q0,0.24609375-0.3486328125,0.3349609375t-0.6083984375,0.0888671875q-0.396484375,0-0.7314453125-0.1572265625t-0.5263671875-0.5400390625l-0.19140625-0.396484375q-0.1640625-0.314453125-0.1640625-0.7041015625t-0.068359375-0.7177734375z M31.49744140625,25.341796875l0-0.259765625q0-0.642578125,0.3212890625-1.1484375t0.9638671875-0.505859375q0.08203125,0,0.1572265625,0.013671875t0.1572265625,0.013671875q0.1640625,0.02734375,0.4306640625,0.1298828125t0.2666015625,0.3212890625l0,0.02734375q-0.0546875,0.109375-0.068359375,0.2255859375t-0.068359375,0.1982421875l0.02734375-0.02734375q-0.1640625,0.423828125-0.2666015625,0.68359375t-0.2255859375,0.4169921875t-0.3076171875,0.2255859375t-0.5263671875,0.068359375q-0.0546875,0-0.19140625-0.013671875t-0.2939453125-0.0546875t-0.2666015625-0.109375t-0.109375-0.205078125z M36.5925390625,28.951171875q0-0.642578125,0.2529296875-0.9501953125t0.9228515625-0.3076171875q0.396484375,0,0.7451171875,0.1640625t0.3486328125,0.697265625q0.0546875,0.779296875,0.0546875,1.6337890625t0.150390625,1.6201171875q0.341796875-0.560546875,0.7724609375-1.12109375t0.9501953125-0.998046875t1.134765625-0.7041015625t1.33984375-0.2666015625q0.984375,0,1.66796875,0.41015625t1.1279296875,1.06640625t0.642578125,1.4833984375t0.1982421875,1.6611328125q0,1.28515625-0.3896484375,2.0986328125t-1.0322265625,1.2783203125t-1.4560546875,0.62890625t-1.6337890625,0.1640625q-0.724609375,0-1.353515625-0.2802734375t-0.875-1.0595703125q0-0.21875,0.3212890625-0.2734375t0.4580078125-0.0546875q0.451171875,0,0.669921875,0.24609375q0.1640625,0.19140625,0.3623046875,0.3896484375t0.4169921875,0.1982421875q0.423828125,0,0.888671875-0.2392578125t0.8544921875-0.62890625t0.65625-0.9228515625t0.2666015625-1.09375q0-0.478515625-0.08203125-1.189453125t-0.2802734375-1.3671875t-0.546875-1.134765625t-0.8818359375-0.478515625q-0.806640625,0-1.4560546875,0.73828125t-1.080078125,1.77734375t-0.669921875,2.16015625t-0.2392578125,1.873046875t0.095703125,1.900390625t0.1982421875,2.3857421875t0.1982421875,2.3857421875t0.095703125,1.900390625q0,0.19140625-0.1572265625,0.3076171875t-0.3759765625,0.1845703125t-0.4443359375,0.08203125t-0.3349609375,0.013671875q-0.369140625,0-0.7724609375-0.08203125t-0.5537109375-0.505859375q-0.19140625-0.669921875-0.35546875-1.9072265625t-0.2939453125-2.734375t-0.2255859375-3.14453125t-0.1640625-3.1787109375t-0.1025390625-2.802734375t-0.0341796875-2.0234375z M49.13880859375,32.697265625q0-0.2734375,0.0615234375-0.724609375t0.1435546875-0.8955078125t0.19140625-0.8271484375t0.259765625-0.4921875q0.109375-0.109375,0.3759765625-0.21875t0.560546875-0.1572265625t0.546875,0.041015625t0.3076171875,0.3623046875q-0.19140625,0.24609375-0.3486328125,0.8408203125t-0.2392578125,1.3193359375q-0.068359375,0.615234375-0.068359375,1.271484375l0,0.232421875q0.013671875,0.765625,0.13671875,1.408203125t0.3759765625,1.0595703125t0.7041015625,0.4169921875q0.95703125,0,1.75-0.8818359375t1.408203125-2.1533203125t1.080078125-2.7001953125t0.79296875-2.4951171875q0.08203125-0.314453125,0.3896484375-0.423828125t0.6630859375-0.0751953125t0.6357421875,0.1708984375t0.3349609375,0.328125q-0.2734375,2.296875-0.4306640625,4.59375t-0.1572265625,4.62109375q0,0.451171875,0.041015625,0.8271484375t-0.041015625,0.642578125t-0.3623046875,0.423828125t-0.8955078125,0.1572265625q-0.13671875,0-0.3486328125-0.02734375t-0.4375-0.0888671875t-0.3828125-0.1845703125t-0.1572265625-0.287109375q0-1.01171875,0.0751953125-2.078125t0.2119140625-2.064453125q-0.369140625,0.533203125-0.8134765625,1.0595703125t-0.9775390625,0.9501953125t-1.1484375,0.6767578125t-1.326171875,0.2529296875q-1.01171875,0-1.5927734375-0.478515625t-0.875-1.1962890625t-0.369140625-1.5654296875t-0.0751953125-1.640625z M61.99953125,38.75390625q0-0.396484375,0.0341796875-0.833984375t0.0615234375-0.8203125l0.08203125-2.05078125q0.13671875-2.4609375,0.3349609375-4.83984375t0.3349609375-4.8125q0.08203125-1.33984375,0.123046875-2.6318359375t0.123046875-2.6318359375q-0.0546875-0.109375-0.0546875-0.150390625q0-0.19140625,0.1435546875-0.30078125t0.3349609375-0.1845703125t0.4033203125-0.1025390625t0.3212890625-0.02734375l0.314453125,0q0.423828125,0.0546875,0.615234375,0.2666015625t0.24609375,0.505859375t0.02734375,0.62890625t-0.02734375,0.6220703125q0,1.982421875-0.095703125,4.0400390625t-0.21875,4.12890625t-0.2255859375,4.142578125t-0.1025390625,4.0947265625l0,0.95703125q0,0.642578125-0.3623046875,0.84765625t-1.0048828125,0.205078125q-0.560546875,0-0.984375-0.24609375t-0.423828125-0.806640625z"/><path fill="#" d=""/></svg>
